<svg width="18" height="18" viewBox="0 0 18 18" fill="none" xmlns="http://www.w3.org/2000/svg">
<path d="M4 13.5833V9.30556C4 8.79956 4.37277 8.38889 4.83332 8.38889H5.77773C5.86995 8.38889 5.94442 8.47077 5.94442 8.57221V14.3167C5.94442 14.4181 5.86995 14.5 5.77773 14.5H4.83332C4.37277 14.5 4 14.0893 4 13.5833ZM6.94382 14.5H11.1654C12.2821 14.5 12.521 13.9928 12.7488 13.2472L13.8599 9.58056C14.221 8.39501 13.9487 7.16667 12.2765 7.16667H10.1099V5.18667C10.1099 4.57556 9.83212 4.00112 9.36546 3.66501C9.21546 3.55501 9.04324 3.5 8.87658 3.5C8.52658 3.5 8.18771 3.73224 8.05438 4.12946L6.78493 8.36077C6.77937 8.3791 6.77666 8.39865 6.77666 8.41821V14.3167C6.77721 14.4181 6.85216 14.5 6.94382 14.5Z" fill="#42ADAC"/>
</svg>
