<svg width="18" height="18" viewBox="0 0 18 18" fill="none" xmlns="http://www.w3.org/2000/svg">
<path d="M14 4.41667V8.69444C14 9.20044 13.6272 9.61111 13.1667 9.61111H12.2223C12.1301 9.61111 12.0556 9.52923 12.0556 9.42779V3.68333C12.0556 3.58188 12.1301 3.5 12.2223 3.5H13.1667C13.6272 3.5 14 3.91067 14 4.41667ZM11.0562 3.5H6.83457C5.71792 3.5 5.47898 4.00721 5.2512 4.75277L4.1401 8.41944C3.779 9.60499 4.05127 10.8333 5.72347 10.8333H7.89006V12.8133C7.89006 13.4244 8.16788 13.9989 8.63454 14.335C8.78454 14.445 8.95676 14.5 9.12342 14.5C9.47342 14.5 9.81229 14.2678 9.94562 13.8705L11.2151 9.63923C11.2206 9.6209 11.2233 9.60135 11.2233 9.58179V3.68333C11.2228 3.58188 11.1478 3.5 11.0562 3.5Z" fill="#6F58B0"/>
</svg>
