<svg width="18" height="20" viewBox="0 0 18 20" fill="none" xmlns="http://www.w3.org/2000/svg">
<path d="M14.666 0.00012207H3.33301C1.11101 0.00012207 0 1.11113 0 3.33313V13.3331C0 15.5551 1.11101 16.6661 3.33301 16.6661H4.83301C5.35801 16.6661 5.85202 16.9131 6.16602 17.3331L7.66602 19.3331C8.33302 20.2221 9.66601 20.2221 10.333 19.3331L11.833 17.3331C12.148 16.9131 12.642 16.6661 13.166 16.6661H14.666C16.888 16.6661 17.999 15.5551 17.999 13.3331V3.33313C17.999 1.11113 16.888 0.00012207 14.666 0.00012207ZM5.99902 12.4501C5.99902 12.6161 5.86497 12.7501 5.69897 12.7501H5.03906C4.60306 12.7501 4.24902 12.3961 4.24902 11.9601V8.26013C4.24902 7.82513 4.60406 7.47009 5.03906 7.47009H5.69897C5.86497 7.47009 5.99902 7.60414 5.99902 7.77014V12.4501ZM13.618 8.50012L12.558 11.6701C12.348 12.3101 12.118 12.7501 11.058 12.7501H7.29797C7.13197 12.7501 6.99805 12.6161 6.99805 12.4501V7.18811C6.99805 7.15611 7.00306 7.12512 7.01306 7.09412L8.09802 3.7901C8.22802 3.4501 8.54806 3.25012 8.88806 3.25012C9.04806 3.25012 9.20802 3.29014 9.34802 3.39014C9.78802 3.68014 10.048 4.18014 10.048 4.71014V6.4201H12.118C13.698 6.4201 13.958 7.48012 13.618 8.50012Z" fill="#42ADAC"/>
</svg>
